<?xml version="1.0" encoding="UTF-8" standalone="no"?>
<svg
   width="941.38702mm"
   height="340.78299mm"
   viewBox="0 0 3557.9982 1287.9987"
   fill="none"
   version="1.1"
   id="svg1296"
   sodipodi:docname="steepens-logo-white.svg"
   inkscape:version="1.1 (c4e8f9ed74, 2021-05-24)"
   xmlns:inkscape="http://www.inkscape.org/namespaces/inkscape"
   xmlns:sodipodi="http://sodipodi.sourceforge.net/DTD/sodipodi-0.dtd"
   xmlns="http://www.w3.org/2000/svg"
   xmlns:svg="http://www.w3.org/2000/svg">
  <defs
     id="defs1300" />
  <sodipodi:namedview
     id="namedview1298"
     pagecolor="#ff6aff"
     bordercolor="#666666"
     borderopacity="1.0"
     inkscape:pageshadow="2"
     inkscape:pageopacity="0"
     inkscape:pagecheckerboard="0"
     showgrid="false"
     units="mm"
     width="941.387mm"
     inkscape:zoom="0.25398608"
     inkscape:cx="1710.7237"
     inkscape:cy="870.12643"
     inkscape:window-width="1900"
     inkscape:window-height="1025"
     inkscape:window-x="10"
     inkscape:window-y="45"
     inkscape:window-maximized="1"
     inkscape:current-layer="svg1296"
     inkscape:document-units="mm" />
  <g
     id="g1468"
     transform="translate(0,-57)">
    <path
       id="path1266"
       d="m 645,57 v 160 h -71 v 30 h 71 v 610 h 60 V 247 H 3558 V 217 H 705 V 117 Z"
       style="fill:#ffffff;fill-opacity:1" />
    <path
       id="path1270"
       d="M 2042.5,993.5 1936.6152,1100 H 1936 v 110 h -32.3496 L 1966,1345 2028.3496,1210 H 1995 v -85.0527 L 2042.5,1077 Z"
       style="fill:#ffffff;fill-opacity:1" />
    <path
       id="path1272"
       d="M 1936,320 V 920.08398 L 1887.5,969 v 82.5 L 1994.377,945 H 1995 V 738.62109 L 2204.5,530 1995,320.38086 V 320 h -0.3809 z m 59,83.87891 L 2121.5,530 1995,655.62109 Z"
       style="fill:#ffffff;fill-opacity:1" />
    <path
       d="m 2521.44,320 257.44,262.895 H 2427 l 51.5,-52.881 h 171.66 L 2521.44,402.5 l -173.9,180.395 173.9,178.286 46.33,-46.838 h 82.39 L 2521.44,845.791 2264,582.895 Z"
       fill="#ffffff"
       id="path1282" />
    <path
       d="m 3290.5,671 90.94,90.181 L 3471,671 3413,613 h -91 l -119,-117 178,-176 177,176 h -87 l -90,-91 -91,91 58,58 h 92.5 L 3558,671 3381.44,845.791 3203,671 Z"
       fill="#ffffff"
       id="path1284" />
    <path
       d="m 1594.44,320 257.44,262.895 H 1500 l 51.5,-52.881 h 171.66 L 1594.44,402.5 l -173.9,180.395 173.9,178.286 46.33,-46.838 h 82.39 L 1594.44,845.791 1337,582.895 Z"
       fill="#ffffff"
       id="path1286" />
    <path
       d="M 257.442,845.791 1.83105e-4,582.896 H 78 L 257.442,763.291 431.349,582.896 332,481 H 158 L 0,320 257.5,57 515,320 H 431 L 257.5,140 78,320 183,422 h 174 l 157.885,160.896 z"
       fill="#ffffff"
       id="path1288" />
    <path
       d="m 1020.44,320 257.44,262.895 H 926 l 51.5,-52.881 h 171.66 L 1020.44,402.5 846.536,582.895 l 173.904,178.286 46.33,-46.838 h 82.39 L 1020.44,845.791 763,582.895 Z"
       fill="#ffffff"
       id="path1290" />
    <path
       id="path1292"
       d="M 2896.9004,320 2838,379 v 467 h 58.9004 V 497.16797 L 2990.25,403.5 l 94.3496,94 V 845.54688 H 3144 V 474 l -153.25,-154 -93.8496,94.16797 z"
       style="fill:#ffffff;fill-opacity:1" />
  </g>
</svg>
